<?xml version="1.0" encoding="UTF-8"?>
<mxfile host="app.diagrams.net" agent="Mozilla/5.0 (Windows NT 10.0; Win64; x64) AppleWebKit/537.36 (KHTML, like Gecko) Chrome/140.0.0.0 Safari/537.36 Edg/140.0.0.0" version="28.2.3" pages="2">
  <diagram name="第 1 页" id="1vujW_4SudDqKDuMUbj3">
    <mxGraphModel dx="938" dy="666" grid="1" gridSize="10" guides="1" tooltips="1" connect="1" arrows="1" fold="1" page="1" pageScale="1" pageWidth="827" pageHeight="1169" math="0" shadow="0">
      <root>
        <mxCell id="0" />
        <mxCell id="1" parent="0" />
        <mxCell id="YBkzplvRWndX2prBPd3J-1" value="Shopowner: Muhehe" style="shape=umlActor;verticalLabelPosition=bottom;verticalAlign=top;html=1;outlineConnect=0;" parent="1" vertex="1">
          <mxGeometry x="80" y="160" width="30" height="60" as="geometry" />
        </mxCell>
        <mxCell id="YBkzplvRWndX2prBPd3J-2" value="" style="endArrow=none;html=1;rounded=0;" parent="1" source="YBkzplvRWndX2prBPd3J-1" edge="1">
          <mxGeometry width="50" height="50" relative="1" as="geometry">
            <mxPoint x="390" y="340" as="sourcePoint" />
            <mxPoint x="230" y="190" as="targetPoint" />
          </mxGeometry>
        </mxCell>
        <mxCell id="YBkzplvRWndX2prBPd3J-6" value="Product Management" style="ellipse;whiteSpace=wrap;html=1;" parent="1" vertex="1">
          <mxGeometry x="230" y="155" width="140" height="70" as="geometry" />
        </mxCell>
        <mxCell id="YBkzplvRWndX2prBPd3J-8" value="ProductList and Description Edit" style="ellipse;whiteSpace=wrap;html=1;" parent="1" vertex="1">
          <mxGeometry x="470" y="85" width="140" height="70" as="geometry" />
        </mxCell>
        <mxCell id="YBkzplvRWndX2prBPd3J-10" value="Comments Management" style="ellipse;whiteSpace=wrap;html=1;" parent="1" vertex="1">
          <mxGeometry x="500" y="155" width="140" height="70" as="geometry" />
        </mxCell>
        <mxCell id="YBkzplvRWndX2prBPd3J-12" value="Data Stats and Analysis" style="ellipse;whiteSpace=wrap;html=1;" parent="1" vertex="1">
          <mxGeometry x="500" y="225" width="140" height="70" as="geometry" />
        </mxCell>
        <mxCell id="YBkzplvRWndX2prBPd3J-13" value="" style="endArrow=none;html=1;rounded=0;" parent="1" target="YBkzplvRWndX2prBPd3J-15" edge="1">
          <mxGeometry width="50" height="50" relative="1" as="geometry">
            <mxPoint x="110" y="190" as="sourcePoint" />
            <mxPoint x="240" y="290" as="targetPoint" />
          </mxGeometry>
        </mxCell>
        <mxCell id="YBkzplvRWndX2prBPd3J-15" value="customer Relation Management" style="ellipse;whiteSpace=wrap;html=1;" parent="1" vertex="1">
          <mxGeometry x="240" y="80" width="140" height="70" as="geometry" />
        </mxCell>
        <mxCell id="YBkzplvRWndX2prBPd3J-19" value="" style="endArrow=none;html=1;rounded=0;" parent="1" target="YBkzplvRWndX2prBPd3J-20" edge="1">
          <mxGeometry width="50" height="50" relative="1" as="geometry">
            <mxPoint x="110" y="190" as="sourcePoint" />
            <mxPoint x="230" y="300" as="targetPoint" />
          </mxGeometry>
        </mxCell>
        <mxCell id="YBkzplvRWndX2prBPd3J-20" value="Stocks and Logistic" style="ellipse;whiteSpace=wrap;html=1;" parent="1" vertex="1">
          <mxGeometry x="230" y="230" width="140" height="70" as="geometry" />
        </mxCell>
        <mxCell id="YBkzplvRWndX2prBPd3J-23" value="Stocks Management" style="ellipse;whiteSpace=wrap;html=1;" parent="1" vertex="1">
          <mxGeometry x="460" y="295" width="140" height="70" as="geometry" />
        </mxCell>
        <mxCell id="YBkzplvRWndX2prBPd3J-25" value="Orders Processing" style="ellipse;whiteSpace=wrap;html=1;" parent="1" vertex="1">
          <mxGeometry x="450" y="365" width="140" height="70" as="geometry" />
        </mxCell>
        <mxCell id="YBkzplvRWndX2prBPd3J-26" value="Extends" style="endArrow=open;endSize=12;dashed=1;html=1;rounded=0;entryX=1;entryY=0.5;entryDx=0;entryDy=0;" parent="1" target="YBkzplvRWndX2prBPd3J-25" edge="1">
          <mxGeometry width="160" relative="1" as="geometry">
            <mxPoint x="730" y="350" as="sourcePoint" />
            <mxPoint x="770" y="370" as="targetPoint" />
          </mxGeometry>
        </mxCell>
        <mxCell id="YBkzplvRWndX2prBPd3J-27" value="Cancel Order" style="ellipse;whiteSpace=wrap;html=1;" parent="1" vertex="1">
          <mxGeometry x="720" y="300" width="140" height="70" as="geometry" />
        </mxCell>
        <mxCell id="YBkzplvRWndX2prBPd3J-29" value="Arrange Delivery" style="ellipse;whiteSpace=wrap;html=1;" parent="1" vertex="1">
          <mxGeometry x="687" y="370" width="140" height="70" as="geometry" />
        </mxCell>
        <mxCell id="YBkzplvRWndX2prBPd3J-30" value="Payment" style="ellipse;whiteSpace=wrap;html=1;" parent="1" vertex="1">
          <mxGeometry x="210" y="310" width="140" height="70" as="geometry" />
        </mxCell>
        <mxCell id="YBkzplvRWndX2prBPd3J-31" value="" style="endArrow=none;html=1;rounded=0;" parent="1" edge="1">
          <mxGeometry width="50" height="50" relative="1" as="geometry">
            <mxPoint x="110" y="190" as="sourcePoint" />
            <mxPoint x="210" y="350" as="targetPoint" />
          </mxGeometry>
        </mxCell>
        <mxCell id="YBkzplvRWndX2prBPd3J-35" value="Refund" style="ellipse;whiteSpace=wrap;html=1;" parent="1" vertex="1">
          <mxGeometry x="590" y="500" width="140" height="70" as="geometry" />
        </mxCell>
        <mxCell id="YBkzplvRWndX2prBPd3J-36" value="" style="endArrow=none;html=1;rounded=0;entryX=0.43;entryY=0.046;entryDx=0;entryDy=0;entryPerimeter=0;" parent="1" target="YBkzplvRWndX2prBPd3J-38" edge="1">
          <mxGeometry width="50" height="50" relative="1" as="geometry">
            <mxPoint x="110" y="190" as="sourcePoint" />
            <mxPoint x="199.35599710222414" y="480.40699058222845" as="targetPoint" />
          </mxGeometry>
        </mxCell>
        <mxCell id="YBkzplvRWndX2prBPd3J-38" value="Create&amp;amp;Participate&amp;amp;quit A Promotion" style="ellipse;whiteSpace=wrap;html=1;" parent="1" vertex="1">
          <mxGeometry x="140" y="490" width="140" height="70" as="geometry" />
        </mxCell>
        <mxCell id="YBkzplvRWndX2prBPd3J-42" value="history" style="ellipse;whiteSpace=wrap;html=1;" parent="1" vertex="1">
          <mxGeometry x="730" y="180" width="140" height="70" as="geometry" />
        </mxCell>
        <mxCell id="YBkzplvRWndX2prBPd3J-43" value="Extends" style="endArrow=open;endSize=12;dashed=1;html=1;rounded=0;entryX=0.719;entryY=0.994;entryDx=0;entryDy=0;entryPerimeter=0;exitX=0.413;exitY=-0.017;exitDx=0;exitDy=0;exitPerimeter=0;" parent="1" source="YBkzplvRWndX2prBPd3J-44" target="YBkzplvRWndX2prBPd3J-30" edge="1">
          <mxGeometry width="160" relative="1" as="geometry">
            <mxPoint x="360" y="450" as="sourcePoint" />
            <mxPoint x="360" y="540" as="targetPoint" />
          </mxGeometry>
        </mxCell>
        <mxCell id="YBkzplvRWndX2prBPd3J-44" value="Monthly Accounting" style="ellipse;whiteSpace=wrap;html=1;" parent="1" vertex="1">
          <mxGeometry x="280" y="460" width="140" height="70" as="geometry" />
        </mxCell>
        <mxCell id="YBkzplvRWndX2prBPd3J-45" value="Extends" style="endArrow=open;endSize=12;dashed=1;html=1;rounded=0;exitX=0;exitY=0.357;exitDx=0;exitDy=0;exitPerimeter=0;" parent="1" source="YBkzplvRWndX2prBPd3J-35" edge="1">
          <mxGeometry width="160" relative="1" as="geometry">
            <mxPoint x="489" y="450" as="sourcePoint" />
            <mxPoint x="350" y="345" as="targetPoint" />
          </mxGeometry>
        </mxCell>
        <mxCell id="YBkzplvRWndX2prBPd3J-47" value="Extends" style="endArrow=open;endSize=12;dashed=1;html=1;rounded=0;entryX=1;entryY=0.5;entryDx=0;entryDy=0;" parent="1" source="YBkzplvRWndX2prBPd3J-29" target="YBkzplvRWndX2prBPd3J-25" edge="1">
          <mxGeometry width="160" relative="1" as="geometry">
            <mxPoint x="779" y="470" as="sourcePoint" />
            <mxPoint x="660" y="450" as="targetPoint" />
          </mxGeometry>
        </mxCell>
        <mxCell id="YBkzplvRWndX2prBPd3J-48" value="Extends" style="endArrow=open;endSize=12;dashed=1;html=1;rounded=0;exitX=0;exitY=0;exitDx=0;exitDy=0;" parent="1" source="YBkzplvRWndX2prBPd3J-25" edge="1">
          <mxGeometry width="160" relative="1" as="geometry">
            <mxPoint x="559" y="370" as="sourcePoint" />
            <mxPoint x="370" y="270" as="targetPoint" />
          </mxGeometry>
        </mxCell>
        <mxCell id="YBkzplvRWndX2prBPd3J-49" value="Extends" style="endArrow=open;endSize=12;dashed=1;html=1;rounded=0;" parent="1" source="YBkzplvRWndX2prBPd3J-23" edge="1">
          <mxGeometry width="160" relative="1" as="geometry">
            <mxPoint x="569" y="320" as="sourcePoint" />
            <mxPoint x="370" y="270" as="targetPoint" />
          </mxGeometry>
        </mxCell>
        <mxCell id="YBkzplvRWndX2prBPd3J-51" value="Extends" style="endArrow=open;endSize=12;dashed=1;html=1;rounded=0;exitX=0;exitY=0.5;exitDx=0;exitDy=0;" parent="1" source="YBkzplvRWndX2prBPd3J-10" edge="1">
          <mxGeometry width="160" relative="1" as="geometry">
            <mxPoint x="579" y="210" as="sourcePoint" />
            <mxPoint x="370" y="190" as="targetPoint" />
          </mxGeometry>
        </mxCell>
        <mxCell id="YBkzplvRWndX2prBPd3J-52" value="Extends" style="endArrow=open;endSize=12;dashed=1;html=1;rounded=0;entryX=1;entryY=0.5;entryDx=0;entryDy=0;exitX=0.016;exitY=0.666;exitDx=0;exitDy=0;exitPerimeter=0;" parent="1" source="YBkzplvRWndX2prBPd3J-8" target="YBkzplvRWndX2prBPd3J-6" edge="1">
          <mxGeometry width="160" relative="1" as="geometry">
            <mxPoint x="569" y="160" as="sourcePoint" />
            <mxPoint x="450" y="140" as="targetPoint" />
          </mxGeometry>
        </mxCell>
        <mxCell id="YBkzplvRWndX2prBPd3J-54" value="Includes" style="endArrow=open;endSize=12;dashed=1;html=1;rounded=0;entryX=0.021;entryY=0.394;entryDx=0;entryDy=0;entryPerimeter=0;exitX=1;exitY=0.5;exitDx=0;exitDy=0;" parent="1" source="YBkzplvRWndX2prBPd3J-8" target="YBkzplvRWndX2prBPd3J-42" edge="1">
          <mxGeometry width="160" relative="1" as="geometry">
            <mxPoint x="660" y="200" as="sourcePoint" />
            <mxPoint x="570" y="260" as="targetPoint" />
          </mxGeometry>
        </mxCell>
        <mxCell id="YBkzplvRWndX2prBPd3J-55" value="Includes" style="endArrow=open;endSize=12;dashed=1;html=1;rounded=0;entryX=0;entryY=0.5;entryDx=0;entryDy=0;exitX=1;exitY=0.5;exitDx=0;exitDy=0;" parent="1" source="YBkzplvRWndX2prBPd3J-23" target="YBkzplvRWndX2prBPd3J-42" edge="1">
          <mxGeometry width="160" relative="1" as="geometry">
            <mxPoint x="700" y="240" as="sourcePoint" />
            <mxPoint x="823" y="328" as="targetPoint" />
          </mxGeometry>
        </mxCell>
        <mxCell id="YBkzplvRWndX2prBPd3J-56" value="Includes" style="endArrow=open;endSize=12;dashed=1;html=1;rounded=0;entryX=0.033;entryY=0.657;entryDx=0;entryDy=0;entryPerimeter=0;" parent="1" target="YBkzplvRWndX2prBPd3J-42" edge="1">
          <mxGeometry width="160" relative="1" as="geometry">
            <mxPoint x="590" y="400" as="sourcePoint" />
            <mxPoint x="803" y="398" as="targetPoint" />
          </mxGeometry>
        </mxCell>
        <mxCell id="YBkzplvRWndX2prBPd3J-57" value="Extends" style="endArrow=open;endSize=12;dashed=1;html=1;rounded=0;entryX=1;entryY=1;entryDx=0;entryDy=0;" parent="1" target="YBkzplvRWndX2prBPd3J-38" edge="1">
          <mxGeometry width="160" relative="1" as="geometry">
            <mxPoint x="340" y="620" as="sourcePoint" />
            <mxPoint x="300" y="660" as="targetPoint" />
          </mxGeometry>
        </mxCell>
        <mxCell id="YBkzplvRWndX2prBPd3J-58" value="Out of Stock&amp;amp;Money" style="ellipse;whiteSpace=wrap;html=1;" parent="1" vertex="1">
          <mxGeometry x="330" y="600" width="140" height="70" as="geometry" />
        </mxCell>
        <mxCell id="YBkzplvRWndX2prBPd3J-59" value="Includes" style="endArrow=open;endSize=12;dashed=1;html=1;rounded=0;exitX=0.99;exitY=0.694;exitDx=0;exitDy=0;exitPerimeter=0;entryX=0;entryY=0.5;entryDx=0;entryDy=0;" parent="1" source="YBkzplvRWndX2prBPd3J-10" target="YBkzplvRWndX2prBPd3J-60" edge="1">
          <mxGeometry width="160" relative="1" as="geometry">
            <mxPoint x="620" y="540" as="sourcePoint" />
            <mxPoint x="770" y="140" as="targetPoint" />
          </mxGeometry>
        </mxCell>
        <mxCell id="YBkzplvRWndX2prBPd3J-60" value="Appeal" style="ellipse;whiteSpace=wrap;html=1;" parent="1" vertex="1">
          <mxGeometry x="890" y="290" width="140" height="70" as="geometry" />
        </mxCell>
        <mxCell id="YBkzplvRWndX2prBPd3J-61" value="Includes" style="endArrow=open;endSize=12;dashed=1;html=1;rounded=0;exitX=1;exitY=0.5;exitDx=0;exitDy=0;entryX=0;entryY=1;entryDx=0;entryDy=0;" parent="1" source="YBkzplvRWndX2prBPd3J-35" target="YBkzplvRWndX2prBPd3J-60" edge="1">
          <mxGeometry width="160" relative="1" as="geometry">
            <mxPoint x="800" y="490" as="sourcePoint" />
            <mxPoint x="1051" y="611" as="targetPoint" />
          </mxGeometry>
        </mxCell>
        <mxCell id="BvsYPhW4Xjp5xOL8YTeB-1" value="User: Bob" style="shape=umlActor;verticalLabelPosition=bottom;verticalAlign=top;html=1;" parent="1" vertex="1">
          <mxGeometry x="710" y="690" width="30" height="60" as="geometry" />
        </mxCell>
        <mxCell id="BvsYPhW4Xjp5xOL8YTeB-4" value="Browse the goods" style="ellipse;whiteSpace=wrap;html=1;fontFamily=Times New Roman;" parent="1" vertex="1">
          <mxGeometry x="580" y="690" width="100" height="60" as="geometry" />
        </mxCell>
        <mxCell id="BvsYPhW4Xjp5xOL8YTeB-6" value="Place an order" style="ellipse;whiteSpace=wrap;html=1;fontFamily=Times New Roman;" parent="1" vertex="1">
          <mxGeometry x="570" y="585" width="100" height="70" as="geometry" />
        </mxCell>
        <mxCell id="BvsYPhW4Xjp5xOL8YTeB-7" value="Extends" style="endArrow=open;endSize=12;dashed=1;html=1;rounded=0;exitX=0.416;exitY=-0.011;exitDx=0;exitDy=0;exitPerimeter=0;entryX=0.569;entryY=0.994;entryDx=0;entryDy=0;entryPerimeter=0;" parent="1" source="BvsYPhW4Xjp5xOL8YTeB-6" target="YBkzplvRWndX2prBPd3J-25" edge="1">
          <mxGeometry width="160" relative="1" as="geometry">
            <mxPoint x="920" y="820" as="sourcePoint" />
            <mxPoint x="560" y="460" as="targetPoint" />
          </mxGeometry>
        </mxCell>
        <mxCell id="BvsYPhW4Xjp5xOL8YTeB-8" value="Extends" style="endArrow=open;endSize=12;dashed=1;html=1;rounded=0;entryX=1.006;entryY=0.683;entryDx=0;entryDy=0;entryPerimeter=0;exitX=0;exitY=0.351;exitDx=0;exitDy=0;exitPerimeter=0;" parent="1" source="BvsYPhW4Xjp5xOL8YTeB-9" target="YBkzplvRWndX2prBPd3J-38" edge="1">
          <mxGeometry x="-0.2005" y="2" width="160" relative="1" as="geometry">
            <mxPoint x="410" y="560" as="sourcePoint" />
            <mxPoint x="370" y="550" as="targetPoint" />
            <mxPoint as="offset" />
          </mxGeometry>
        </mxCell>
        <mxCell id="BvsYPhW4Xjp5xOL8YTeB-9" value="Join" style="ellipse;whiteSpace=wrap;html=1;" parent="1" vertex="1">
          <mxGeometry x="380" y="530" width="140" height="70" as="geometry" />
        </mxCell>
        <mxCell id="BvsYPhW4Xjp5xOL8YTeB-11" value="Extends" style="endArrow=open;endSize=12;dashed=1;html=1;rounded=0;exitX=0;exitY=0.5;exitDx=0;exitDy=0;" parent="1" source="BvsYPhW4Xjp5xOL8YTeB-6" target="BvsYPhW4Xjp5xOL8YTeB-9" edge="1">
          <mxGeometry x="-0.2005" y="2" width="160" relative="1" as="geometry">
            <mxPoint x="639" y="727" as="sourcePoint" />
            <mxPoint x="540" y="710" as="targetPoint" />
            <mxPoint as="offset" />
          </mxGeometry>
        </mxCell>
        <mxCell id="BvsYPhW4Xjp5xOL8YTeB-12" value="Extends" style="endArrow=open;endSize=12;dashed=1;html=1;rounded=0;exitX=0.592;exitY=0.01;exitDx=0;exitDy=0;entryX=0.34;entryY=0.971;entryDx=0;entryDy=0;entryPerimeter=0;exitPerimeter=0;" parent="1" source="BvsYPhW4Xjp5xOL8YTeB-4" target="BvsYPhW4Xjp5xOL8YTeB-6" edge="1">
          <mxGeometry x="-0.2005" y="2" width="160" relative="1" as="geometry">
            <mxPoint x="638" y="711" as="sourcePoint" />
            <mxPoint x="570" y="680" as="targetPoint" />
            <mxPoint as="offset" />
          </mxGeometry>
        </mxCell>
        <mxCell id="BvsYPhW4Xjp5xOL8YTeB-13" value="" style="line;strokeWidth=1;fillColor=none;align=left;verticalAlign=middle;spacingTop=-1;spacingLeft=3;spacingRight=3;rotatable=0;labelPosition=right;points=[];portConstraint=eastwest;strokeColor=inherit;" parent="1" vertex="1">
          <mxGeometry x="680" y="716" width="40" height="8" as="geometry" />
        </mxCell>
        <mxCell id="BvsYPhW4Xjp5xOL8YTeB-16" value="This is how our shop works" style="html=1;whiteSpace=wrap;" parent="1" vertex="1">
          <mxGeometry x="280" width="340" height="50" as="geometry" />
        </mxCell>
        <mxCell id="BvsYPhW4Xjp5xOL8YTeB-17" value="Extends" style="endArrow=open;endSize=12;dashed=1;html=1;rounded=0;exitX=0.049;exitY=0.403;exitDx=0;exitDy=0;entryX=0.989;entryY=0.603;entryDx=0;entryDy=0;entryPerimeter=0;exitPerimeter=0;" parent="1" source="YBkzplvRWndX2prBPd3J-12" target="YBkzplvRWndX2prBPd3J-6" edge="1">
          <mxGeometry width="160" relative="1" as="geometry">
            <mxPoint x="580" y="230" as="sourcePoint" />
            <mxPoint x="450" y="230" as="targetPoint" />
          </mxGeometry>
        </mxCell>
        <mxCell id="BvsYPhW4Xjp5xOL8YTeB-18" value="Extends" style="endArrow=open;endSize=12;dashed=1;html=1;rounded=0;entryX=0.983;entryY=0.754;entryDx=0;entryDy=0;entryPerimeter=0;" parent="1" source="YBkzplvRWndX2prBPd3J-25" target="YBkzplvRWndX2prBPd3J-30" edge="1">
          <mxGeometry width="160" relative="1" as="geometry">
            <mxPoint x="662" y="599" as="sourcePoint" />
            <mxPoint x="580" y="450" as="targetPoint" />
          </mxGeometry>
        </mxCell>
        <mxCell id="BvsYPhW4Xjp5xOL8YTeB-19" value="Failure" style="ellipse;whiteSpace=wrap;html=1;" parent="1" vertex="1">
          <mxGeometry x="750" y="515" width="140" height="70" as="geometry" />
        </mxCell>
        <mxCell id="BvsYPhW4Xjp5xOL8YTeB-20" value="Extends" style="endArrow=open;endSize=12;dashed=1;html=1;rounded=0;" parent="1" source="BvsYPhW4Xjp5xOL8YTeB-19" target="YBkzplvRWndX2prBPd3J-25" edge="1">
          <mxGeometry width="160" relative="1" as="geometry">
            <mxPoint x="930" y="650" as="sourcePoint" />
            <mxPoint x="690" y="470" as="targetPoint" />
          </mxGeometry>
        </mxCell>
      </root>
    </mxGraphModel>
  </diagram>
  <diagram id="inY3BccJQKcF_NaSMHBF" name="第 2 页">
    <mxGraphModel dx="1563" dy="1110" grid="1" gridSize="10" guides="1" tooltips="1" connect="1" arrows="1" fold="1" page="1" pageScale="1" pageWidth="827" pageHeight="1169" math="0" shadow="0">
      <root>
        <mxCell id="0" />
        <mxCell id="1" parent="0" />
        <mxCell id="5s3oPionguj7EZAlvk3g-1" value="shopowner Tom" style="shape=umlActor;verticalLabelPosition=bottom;verticalAlign=top;html=1;outlineConnect=0;" vertex="1" parent="1">
          <mxGeometry x="115" y="207.5" width="30" height="60" as="geometry" />
        </mxCell>
        <mxCell id="5s3oPionguj7EZAlvk3g-3" value="user Jerry&lt;div&gt;&lt;br&gt;&lt;/div&gt;" style="shape=umlActor;verticalLabelPosition=bottom;verticalAlign=top;html=1;outlineConnect=0;" vertex="1" parent="1">
          <mxGeometry x="190" y="570" width="30" height="60" as="geometry" />
        </mxCell>
        <mxCell id="5s3oPionguj7EZAlvk3g-4" value="&#xa;Manage Products&#xa;&#xa;" style="ellipse;whiteSpace=wrap;html=1;" vertex="1" parent="1">
          <mxGeometry x="245" y="192.5" width="140" height="70" as="geometry" />
        </mxCell>
        <mxCell id="5s3oPionguj7EZAlvk3g-5" value="&#xa;View Business Reports&#xa;&#xa;" style="ellipse;whiteSpace=wrap;html=1;" vertex="1" parent="1">
          <mxGeometry x="255" y="122.5" width="140" height="70" as="geometry" />
        </mxCell>
        <mxCell id="5s3oPionguj7EZAlvk3g-6" value="&#xa;Manage Orders&#xa;&#xa;" style="ellipse;whiteSpace=wrap;html=1;" vertex="1" parent="1">
          <mxGeometry x="245" y="262.5" width="140" height="70" as="geometry" />
        </mxCell>
        <mxCell id="5s3oPionguj7EZAlvk3g-7" value="&#xa;Manage Promotions&#xa;&#xa;" style="ellipse;whiteSpace=wrap;html=1;" vertex="1" parent="1">
          <mxGeometry x="245" y="337.5" width="140" height="70" as="geometry" />
        </mxCell>
        <mxCell id="5s3oPionguj7EZAlvk3g-9" value="&#xa;Manage Shopping Cart&#xa;&#xa;" style="ellipse;whiteSpace=wrap;html=1;" vertex="1" parent="1">
          <mxGeometry x="350" y="680" width="140" height="70" as="geometry" />
        </mxCell>
        <mxCell id="5s3oPionguj7EZAlvk3g-10" value="&#xa;Browse and Search Products&#xa;&#xa;" style="ellipse;whiteSpace=wrap;html=1;" vertex="1" parent="1">
          <mxGeometry x="360" y="610" width="140" height="70" as="geometry" />
        </mxCell>
        <mxCell id="5s3oPionguj7EZAlvk3g-11" value="&#xa;Place Order&#xa;&#xa;" style="ellipse;whiteSpace=wrap;html=1;" vertex="1" parent="1">
          <mxGeometry x="350" y="750" width="140" height="70" as="geometry" />
        </mxCell>
        <mxCell id="5s3oPionguj7EZAlvk3g-12" value="&#xa;Manage Account&#xa;&#xa;" style="ellipse;whiteSpace=wrap;html=1;" vertex="1" parent="1">
          <mxGeometry x="350" y="820" width="140" height="70" as="geometry" />
        </mxCell>
        <mxCell id="5s3oPionguj7EZAlvk3g-16" value="&lt;br&gt;Write Comments" style="ellipse;whiteSpace=wrap;html=1;" vertex="1" parent="1">
          <mxGeometry x="343" y="520" width="140" height="70" as="geometry" />
        </mxCell>
        <mxCell id="5s3oPionguj7EZAlvk3g-17" value="&#xa;User Login&#xa;&#xa;" style="ellipse;whiteSpace=wrap;html=1;" vertex="1" parent="1">
          <mxGeometry x="640" y="760" width="140" height="70" as="geometry" />
        </mxCell>
        <mxCell id="5s3oPionguj7EZAlvk3g-18" value="Includes" style="endArrow=open;endSize=12;dashed=1;html=1;rounded=0;exitX=0;exitY=0.5;exitDx=0;exitDy=0;entryX=1;entryY=0.5;entryDx=0;entryDy=0;" edge="1" parent="1" source="5s3oPionguj7EZAlvk3g-17" target="5s3oPionguj7EZAlvk3g-12">
          <mxGeometry x="-0.3563" y="-5" width="160" relative="1" as="geometry">
            <mxPoint x="643" y="908" as="sourcePoint" />
            <mxPoint x="520" y="820" as="targetPoint" />
            <mxPoint y="1" as="offset" />
          </mxGeometry>
        </mxCell>
        <mxCell id="5s3oPionguj7EZAlvk3g-19" value="Includes" style="endArrow=open;endSize=12;dashed=1;html=1;rounded=0;entryX=1;entryY=0.5;entryDx=0;entryDy=0;exitX=0;exitY=0;exitDx=0;exitDy=0;" edge="1" parent="1" source="5s3oPionguj7EZAlvk3g-17" target="5s3oPionguj7EZAlvk3g-11">
          <mxGeometry width="160" relative="1" as="geometry">
            <mxPoint x="663" y="878" as="sourcePoint" />
            <mxPoint x="540" y="790" as="targetPoint" />
          </mxGeometry>
        </mxCell>
        <mxCell id="5s3oPionguj7EZAlvk3g-20" value="&#xa;Make Payment&#xa;&#xa;" style="ellipse;whiteSpace=wrap;html=1;" vertex="1" parent="1">
          <mxGeometry x="630" y="830" width="140" height="70" as="geometry" />
        </mxCell>
        <mxCell id="5s3oPionguj7EZAlvk3g-21" value="&#xa;Confirm Shipping Address&#xa;&#xa;" style="ellipse;whiteSpace=wrap;html=1;" vertex="1" parent="1">
          <mxGeometry x="640" y="680" width="140" height="70" as="geometry" />
        </mxCell>
        <mxCell id="5s3oPionguj7EZAlvk3g-22" value="Includes" style="endArrow=open;endSize=12;dashed=1;html=1;rounded=0;entryX=1;entryY=0.5;entryDx=0;entryDy=0;exitX=0;exitY=0.5;exitDx=0;exitDy=0;" edge="1" parent="1" source="5s3oPionguj7EZAlvk3g-20" target="5s3oPionguj7EZAlvk3g-11">
          <mxGeometry x="-0.4769" y="7" width="160" relative="1" as="geometry">
            <mxPoint x="646" y="675" as="sourcePoint" />
            <mxPoint x="530" y="580" as="targetPoint" />
            <mxPoint x="1" as="offset" />
          </mxGeometry>
        </mxCell>
        <mxCell id="5s3oPionguj7EZAlvk3g-23" value="Includes" style="endArrow=open;endSize=12;dashed=1;html=1;rounded=0;entryX=1;entryY=0.5;entryDx=0;entryDy=0;exitX=0;exitY=0.5;exitDx=0;exitDy=0;" edge="1" parent="1" source="5s3oPionguj7EZAlvk3g-21" target="5s3oPionguj7EZAlvk3g-11">
          <mxGeometry width="160" relative="1" as="geometry">
            <mxPoint x="646" y="675" as="sourcePoint" />
            <mxPoint x="530" y="580" as="targetPoint" />
          </mxGeometry>
        </mxCell>
        <mxCell id="5s3oPionguj7EZAlvk3g-24" value="&#xa;Select Shipping Method&#xa;&#xa;" style="ellipse;whiteSpace=wrap;html=1;" vertex="1" parent="1">
          <mxGeometry x="640" y="500" width="140" height="70" as="geometry" />
        </mxCell>
        <mxCell id="5s3oPionguj7EZAlvk3g-25" value="&#xa;Apply Coupon&#xa;&#xa;" style="ellipse;whiteSpace=wrap;html=1;" vertex="1" parent="1">
          <mxGeometry x="650" y="600" width="140" height="70" as="geometry" />
        </mxCell>
        <mxCell id="5s3oPionguj7EZAlvk3g-27" value="Extends&lt;div&gt;User clicks the &quot;Change Shipping Method&quot; option&lt;/div&gt;" style="endArrow=open;endSize=12;dashed=1;html=1;rounded=0;entryX=0.986;entryY=0.381;entryDx=0;entryDy=0;entryPerimeter=0;" edge="1" parent="1" source="5s3oPionguj7EZAlvk3g-24" target="5s3oPionguj7EZAlvk3g-11">
          <mxGeometry x="-0.6863" y="-14" width="160" relative="1" as="geometry">
            <mxPoint x="674" y="629" as="sourcePoint" />
            <mxPoint x="570" y="590" as="targetPoint" />
            <mxPoint x="-1" as="offset" />
            <Array as="points" />
          </mxGeometry>
        </mxCell>
        <mxCell id="5s3oPionguj7EZAlvk3g-28" value="VIP user Smith" style="shape=umlActor;verticalLabelPosition=bottom;verticalAlign=top;html=1;outlineConnect=0;" vertex="1" parent="1">
          <mxGeometry x="85" y="570" width="30" height="60" as="geometry" />
        </mxCell>
        <mxCell id="5s3oPionguj7EZAlvk3g-32" value="" style="endArrow=classic;html=1;rounded=0;exitX=0.5;exitY=0.5;exitDx=0;exitDy=0;exitPerimeter=0;entryX=0.5;entryY=0.5;entryDx=0;entryDy=0;entryPerimeter=0;" edge="1" parent="1" source="5s3oPionguj7EZAlvk3g-28" target="5s3oPionguj7EZAlvk3g-3">
          <mxGeometry width="50" height="50" relative="1" as="geometry">
            <mxPoint x="645" y="640" as="sourcePoint" />
            <mxPoint x="695" y="590" as="targetPoint" />
          </mxGeometry>
        </mxCell>
        <mxCell id="5s3oPionguj7EZAlvk3g-35" value="&lt;br&gt;Access VIP Service&lt;div&gt;&lt;br/&gt;&lt;/div&gt;" style="ellipse;whiteSpace=wrap;html=1;" vertex="1" parent="1">
          <mxGeometry x="40" y="670" width="120" height="80" as="geometry" />
        </mxCell>
        <mxCell id="5s3oPionguj7EZAlvk3g-37" value="" style="endArrow=none;html=1;rounded=0;entryX=0.5;entryY=0.5;entryDx=0;entryDy=0;entryPerimeter=0;" edge="1" parent="1" source="5s3oPionguj7EZAlvk3g-5" target="5s3oPionguj7EZAlvk3g-1">
          <mxGeometry width="50" height="50" relative="1" as="geometry">
            <mxPoint x="375" y="437.5" as="sourcePoint" />
            <mxPoint x="425" y="387.5" as="targetPoint" />
          </mxGeometry>
        </mxCell>
        <mxCell id="5s3oPionguj7EZAlvk3g-39" value="" style="endArrow=none;html=1;rounded=0;entryX=0.5;entryY=0.5;entryDx=0;entryDy=0;entryPerimeter=0;exitX=0;exitY=0.5;exitDx=0;exitDy=0;" edge="1" parent="1" source="5s3oPionguj7EZAlvk3g-4" target="5s3oPionguj7EZAlvk3g-1">
          <mxGeometry width="50" height="50" relative="1" as="geometry">
            <mxPoint x="266" y="167.5" as="sourcePoint" />
            <mxPoint x="140" y="177.5" as="targetPoint" />
          </mxGeometry>
        </mxCell>
        <mxCell id="5s3oPionguj7EZAlvk3g-40" value="" style="endArrow=none;html=1;rounded=0;entryX=0.5;entryY=0.5;entryDx=0;entryDy=0;entryPerimeter=0;exitX=0;exitY=0.5;exitDx=0;exitDy=0;" edge="1" parent="1" source="5s3oPionguj7EZAlvk3g-6" target="5s3oPionguj7EZAlvk3g-1">
          <mxGeometry width="50" height="50" relative="1" as="geometry">
            <mxPoint x="255" y="237.5" as="sourcePoint" />
            <mxPoint x="140" y="177.5" as="targetPoint" />
          </mxGeometry>
        </mxCell>
        <mxCell id="5s3oPionguj7EZAlvk3g-41" value="" style="endArrow=none;html=1;rounded=0;entryX=0.5;entryY=0.5;entryDx=0;entryDy=0;entryPerimeter=0;exitX=0;exitY=0.5;exitDx=0;exitDy=0;" edge="1" parent="1" source="5s3oPionguj7EZAlvk3g-7" target="5s3oPionguj7EZAlvk3g-1">
          <mxGeometry width="50" height="50" relative="1" as="geometry">
            <mxPoint x="255" y="312.5" as="sourcePoint" />
            <mxPoint x="140" y="177.5" as="targetPoint" />
          </mxGeometry>
        </mxCell>
        <mxCell id="5s3oPionguj7EZAlvk3g-42" value="" style="endArrow=none;html=1;rounded=0;exitX=0.5;exitY=0.5;exitDx=0;exitDy=0;exitPerimeter=0;entryX=0;entryY=0.5;entryDx=0;entryDy=0;" edge="1" parent="1" source="5s3oPionguj7EZAlvk3g-3" target="5s3oPionguj7EZAlvk3g-10">
          <mxGeometry width="50" height="50" relative="1" as="geometry">
            <mxPoint x="430" y="380" as="sourcePoint" />
            <mxPoint x="480" y="330" as="targetPoint" />
          </mxGeometry>
        </mxCell>
        <mxCell id="5s3oPionguj7EZAlvk3g-43" value="" style="endArrow=none;html=1;rounded=0;exitX=0.5;exitY=0.5;exitDx=0;exitDy=0;exitPerimeter=0;entryX=0;entryY=0.5;entryDx=0;entryDy=0;" edge="1" parent="1" source="5s3oPionguj7EZAlvk3g-3" target="5s3oPionguj7EZAlvk3g-9">
          <mxGeometry width="50" height="50" relative="1" as="geometry">
            <mxPoint x="200" y="440" as="sourcePoint" />
            <mxPoint x="370" y="295" as="targetPoint" />
          </mxGeometry>
        </mxCell>
        <mxCell id="5s3oPionguj7EZAlvk3g-44" value="" style="endArrow=none;html=1;rounded=0;exitX=0.5;exitY=0.5;exitDx=0;exitDy=0;exitPerimeter=0;entryX=0;entryY=0.5;entryDx=0;entryDy=0;" edge="1" parent="1" source="5s3oPionguj7EZAlvk3g-3" target="5s3oPionguj7EZAlvk3g-11">
          <mxGeometry width="50" height="50" relative="1" as="geometry">
            <mxPoint x="200" y="440" as="sourcePoint" />
            <mxPoint x="360" y="370" as="targetPoint" />
          </mxGeometry>
        </mxCell>
        <mxCell id="5s3oPionguj7EZAlvk3g-45" value="" style="endArrow=none;html=1;rounded=0;exitX=0.5;exitY=0.5;exitDx=0;exitDy=0;exitPerimeter=0;entryX=0;entryY=0.5;entryDx=0;entryDy=0;" edge="1" parent="1" source="5s3oPionguj7EZAlvk3g-3" target="5s3oPionguj7EZAlvk3g-12">
          <mxGeometry width="50" height="50" relative="1" as="geometry">
            <mxPoint x="200" y="440" as="sourcePoint" />
            <mxPoint x="360" y="445" as="targetPoint" />
          </mxGeometry>
        </mxCell>
        <mxCell id="5s3oPionguj7EZAlvk3g-46" value="" style="endArrow=none;html=1;rounded=0;exitX=0.5;exitY=0.5;exitDx=0;exitDy=0;exitPerimeter=0;entryX=0;entryY=0.5;entryDx=0;entryDy=0;" edge="1" parent="1" source="5s3oPionguj7EZAlvk3g-3" target="5s3oPionguj7EZAlvk3g-16">
          <mxGeometry width="50" height="50" relative="1" as="geometry">
            <mxPoint x="200" y="440" as="sourcePoint" />
            <mxPoint x="360" y="515" as="targetPoint" />
          </mxGeometry>
        </mxCell>
        <mxCell id="5s3oPionguj7EZAlvk3g-47" value="" style="endArrow=none;html=1;rounded=0;entryX=0.5;entryY=0.5;entryDx=0;entryDy=0;entryPerimeter=0;exitX=0.5;exitY=0;exitDx=0;exitDy=0;" edge="1" parent="1" source="5s3oPionguj7EZAlvk3g-35" target="5s3oPionguj7EZAlvk3g-28">
          <mxGeometry width="50" height="50" relative="1" as="geometry">
            <mxPoint x="65" y="680" as="sourcePoint" />
            <mxPoint x="115" y="630" as="targetPoint" />
          </mxGeometry>
        </mxCell>
        <mxCell id="5s3oPionguj7EZAlvk3g-48" value="Extends&lt;div&gt;User enters a valid coupon code&lt;/div&gt;" style="endArrow=open;endSize=12;dashed=1;html=1;rounded=0;exitX=0;exitY=0.5;exitDx=0;exitDy=0;" edge="1" parent="1" source="5s3oPionguj7EZAlvk3g-25">
          <mxGeometry x="-0.5849" y="-6" width="160" relative="1" as="geometry">
            <mxPoint x="612" y="687" as="sourcePoint" />
            <mxPoint x="490" y="790" as="targetPoint" />
            <mxPoint as="offset" />
          </mxGeometry>
        </mxCell>
        <mxCell id="5s3oPionguj7EZAlvk3g-50" value="System Administrator Tim" style="shape=umlActor;verticalLabelPosition=bottom;verticalAlign=top;html=1;outlineConnect=0;" vertex="1" parent="1">
          <mxGeometry x="398" y="260" width="30" height="60" as="geometry" />
        </mxCell>
        <mxCell id="5s3oPionguj7EZAlvk3g-51" value="&#xa;Monitor for Fraudulent Activity&#xa;&#xa;" style="ellipse;whiteSpace=wrap;html=1;" vertex="1" parent="1">
          <mxGeometry x="510" y="350" width="140" height="70" as="geometry" />
        </mxCell>
        <mxCell id="5s3oPionguj7EZAlvk3g-52" value="&#xa;Manage Platform Commission Rules&#xa;&#xa;" style="ellipse;whiteSpace=wrap;html=1;" vertex="1" parent="1">
          <mxGeometry x="510" y="270" width="140" height="70" as="geometry" />
        </mxCell>
        <mxCell id="5s3oPionguj7EZAlvk3g-53" value="" style="endArrow=none;html=1;rounded=0;entryX=0;entryY=0.5;entryDx=0;entryDy=0;exitX=0.5;exitY=0.5;exitDx=0;exitDy=0;exitPerimeter=0;" edge="1" parent="1" source="5s3oPionguj7EZAlvk3g-50" target="5s3oPionguj7EZAlvk3g-51">
          <mxGeometry width="50" height="50" relative="1" as="geometry">
            <mxPoint x="483" y="355" as="sourcePoint" />
            <mxPoint x="533" y="305" as="targetPoint" />
          </mxGeometry>
        </mxCell>
        <mxCell id="5s3oPionguj7EZAlvk3g-54" value="" style="endArrow=none;html=1;rounded=0;entryX=0;entryY=0.5;entryDx=0;entryDy=0;exitX=0.5;exitY=0.5;exitDx=0;exitDy=0;exitPerimeter=0;" edge="1" parent="1" source="5s3oPionguj7EZAlvk3g-50" target="5s3oPionguj7EZAlvk3g-52">
          <mxGeometry width="50" height="50" relative="1" as="geometry">
            <mxPoint x="438" y="350" as="sourcePoint" />
            <mxPoint x="553" y="285" as="targetPoint" />
          </mxGeometry>
        </mxCell>
        <mxCell id="5s3oPionguj7EZAlvk3g-55" value="" style="endArrow=none;html=1;rounded=0;exitX=0;exitY=0.5;exitDx=0;exitDy=0;" edge="1" source="5s3oPionguj7EZAlvk3g-56" parent="1" target="5s3oPionguj7EZAlvk3g-1">
          <mxGeometry width="50" height="50" relative="1" as="geometry">
            <mxPoint x="255" y="382.5" as="sourcePoint" />
            <mxPoint x="130" y="307.5" as="targetPoint" />
          </mxGeometry>
        </mxCell>
        <mxCell id="5s3oPionguj7EZAlvk3g-56" value="Manage Comments" style="ellipse;whiteSpace=wrap;html=1;" vertex="1" parent="1">
          <mxGeometry x="245" y="407.5" width="140" height="70" as="geometry" />
        </mxCell>
        <mxCell id="5s3oPionguj7EZAlvk3g-57" value="Logistics Provider Simon" style="shape=umlActor;verticalLabelPosition=bottom;verticalAlign=top;html=1;outlineConnect=0;" vertex="1" parent="1">
          <mxGeometry x="710" y="270" width="30" height="60" as="geometry" />
        </mxCell>
        <mxCell id="5s3oPionguj7EZAlvk3g-66" value="Extends" style="endArrow=open;endSize=12;dashed=1;html=1;rounded=0;exitX=0.5;exitY=0;exitDx=0;exitDy=0;entryX=0.5;entryY=1;entryDx=0;entryDy=0;" edge="1" parent="1" source="5s3oPionguj7EZAlvk3g-16" target="5s3oPionguj7EZAlvk3g-56">
          <mxGeometry x="-0.1472" y="-6" width="160" relative="1" as="geometry">
            <mxPoint x="460" y="455" as="sourcePoint" />
            <mxPoint x="310" y="450" as="targetPoint" />
            <mxPoint as="offset" />
          </mxGeometry>
        </mxCell>
        <mxCell id="5s3oPionguj7EZAlvk3g-68" value="Confirm Shipping Method" style="ellipse;whiteSpace=wrap;html=1;" vertex="1" parent="1">
          <mxGeometry x="665" y="370" width="120" height="80" as="geometry" />
        </mxCell>
        <mxCell id="5s3oPionguj7EZAlvk3g-69" value="" style="endArrow=none;html=1;rounded=0;entryX=0.5;entryY=0;entryDx=0;entryDy=0;exitX=0.5;exitY=0.5;exitDx=0;exitDy=0;exitPerimeter=0;" edge="1" parent="1" source="5s3oPionguj7EZAlvk3g-57" target="5s3oPionguj7EZAlvk3g-68">
          <mxGeometry width="50" height="50" relative="1" as="geometry">
            <mxPoint x="960" y="420" as="sourcePoint" />
            <mxPoint x="960" y="430" as="targetPoint" />
          </mxGeometry>
        </mxCell>
        <mxCell id="5s3oPionguj7EZAlvk3g-70" value="Extends" style="endArrow=open;endSize=12;dashed=1;html=1;rounded=0;entryX=0.5;entryY=1;entryDx=0;entryDy=0;exitX=1;exitY=0.5;exitDx=0;exitDy=0;" edge="1" parent="1" source="5s3oPionguj7EZAlvk3g-16" target="5s3oPionguj7EZAlvk3g-51">
          <mxGeometry x="-0.1472" y="-6" width="160" relative="1" as="geometry">
            <mxPoint x="570" y="510" as="sourcePoint" />
            <mxPoint x="480" y="460" as="targetPoint" />
            <mxPoint as="offset" />
          </mxGeometry>
        </mxCell>
        <mxCell id="5s3oPionguj7EZAlvk3g-71" value="Extends" style="endArrow=open;endSize=12;dashed=1;html=1;rounded=0;entryX=0.065;entryY=0.693;entryDx=0;entryDy=0;exitX=1;exitY=0.5;exitDx=0;exitDy=0;entryPerimeter=0;" edge="1" parent="1" source="5s3oPionguj7EZAlvk3g-56" target="5s3oPionguj7EZAlvk3g-51">
          <mxGeometry x="-0.1472" y="-6" width="160" relative="1" as="geometry">
            <mxPoint x="400" y="565" as="sourcePoint" />
            <mxPoint x="480" y="410" as="targetPoint" />
            <mxPoint as="offset" />
          </mxGeometry>
        </mxCell>
        <mxCell id="5s3oPionguj7EZAlvk3g-73" value="Extends" style="endArrow=open;endSize=12;dashed=1;html=1;rounded=0;entryX=0.411;entryY=0.999;entryDx=0;entryDy=0;exitX=0.5;exitY=0;exitDx=0;exitDy=0;entryPerimeter=0;" edge="1" parent="1" source="5s3oPionguj7EZAlvk3g-24" target="5s3oPionguj7EZAlvk3g-68">
          <mxGeometry x="-0.1472" y="-6" width="160" relative="1" as="geometry">
            <mxPoint x="610" y="635" as="sourcePoint" />
            <mxPoint x="690" y="480" as="targetPoint" />
            <mxPoint as="offset" />
          </mxGeometry>
        </mxCell>
        <mxCell id="5s3oPionguj7EZAlvk3g-74" value="Payment Gateway&amp;nbsp;" style="shape=umlActor;verticalLabelPosition=bottom;verticalAlign=top;html=1;outlineConnect=0;" vertex="1" parent="1">
          <mxGeometry x="450" y="900" width="33" height="60" as="geometry" />
        </mxCell>
        <mxCell id="5s3oPionguj7EZAlvk3g-76" value="Ensure Payment" style="ellipse;whiteSpace=wrap;html=1;" vertex="1" parent="1">
          <mxGeometry x="560" y="930" width="120" height="80" as="geometry" />
        </mxCell>
        <mxCell id="5s3oPionguj7EZAlvk3g-78" value="" style="endArrow=none;html=1;rounded=0;entryX=0;entryY=0.5;entryDx=0;entryDy=0;exitX=0.5;exitY=0.5;exitDx=0;exitDy=0;exitPerimeter=0;" edge="1" parent="1" source="5s3oPionguj7EZAlvk3g-74" target="5s3oPionguj7EZAlvk3g-76">
          <mxGeometry width="50" height="50" relative="1" as="geometry">
            <mxPoint x="400" y="1080" as="sourcePoint" />
            <mxPoint x="450" y="1030" as="targetPoint" />
          </mxGeometry>
        </mxCell>
        <mxCell id="5s3oPionguj7EZAlvk3g-79" value="Extends" style="endArrow=open;endSize=12;dashed=1;html=1;rounded=0;entryX=0.412;entryY=1.02;entryDx=0;entryDy=0;exitX=0.5;exitY=0;exitDx=0;exitDy=0;entryPerimeter=0;" edge="1" parent="1" source="5s3oPionguj7EZAlvk3g-76" target="5s3oPionguj7EZAlvk3g-20">
          <mxGeometry x="-0.1472" y="-6" width="160" relative="1" as="geometry">
            <mxPoint x="720" y="1145" as="sourcePoint" />
            <mxPoint x="817" y="1010" as="targetPoint" />
            <mxPoint as="offset" />
          </mxGeometry>
        </mxCell>
      </root>
    </mxGraphModel>
  </diagram>
</mxfile>
